<?xml version="1.0" encoding="utf-8"?>
<!-- Generator: Adobe Illustrator 16.0.3, SVG Export Plug-In . SVG Version: 6.00 Build 0)  -->
<!DOCTYPE svg PUBLIC "-//W3C//DTD SVG 1.1//EN" "http://www.w3.org/Graphics/SVG/1.1/DTD/svg11.dtd">
<svg version="1.1" id="Capa_1" xmlns="http://www.w3.org/2000/svg" xmlns:xlink="http://www.w3.org/1999/xlink" x="0px" y="0px"
	 width="764.785px" height="814.557px" viewBox="0 0 764.785 814.557" enable-background="new 0 0 764.785 814.557"
	 xml:space="preserve">
<g>
	<polygon fill="#E5163E" points="232.324,385.532 140.266,475.894 150.789,486.895 232.324,406.861 	"/>
	<polygon fill="#FEB104" points="232.324,347.61 0,575.656 10.523,586.657 232.324,368.94 	"/>
	<polygon fill="#46B0AA" points="232.324,309.688 15.656,522.368 26.179,533.369 232.324,331.02 	"/>
</g>
<g>
	<polygon fill="#E5163E" points="513.236,451.415 754.261,214.827 764.785,225.828 523.759,462.416 	"/>
	<polygon fill="#FEB104" points="383.205,539.658 624.23,303.069 634.753,314.07 393.729,550.659 	"/>
	<polygon fill="#46B0AA" points="388.625,497.89 629.65,261.302 640.173,272.302 399.148,508.891 	"/>
</g>
<g>
	<g>
		<path fill="none" stroke="#FEB104" stroke-width="6.1698" stroke-miterlimit="10" d="M435.324,208.053
			c0-15.847,12.68-28.691,28.324-28.691c15.641,0,28.32,12.844,28.32,28.691c0,15.846-12.68,28.691-28.32,28.691
			C448.003,236.745,435.324,223.899,435.324,208.053z"/>
		
			<ellipse fill="none" stroke="#FEB104" stroke-width="6.1698" stroke-miterlimit="10" cx="463.646" cy="208.053" rx="42.484" ry="43.037"/>
		<path fill="none" stroke="#FEB104" stroke-width="6.1698" stroke-miterlimit="10" d="M407,208.053
			c0-31.692,25.365-57.382,56.65-57.382c31.281,0,56.643,25.689,56.643,57.382c0,31.688-25.361,57.382-56.645,57.382
			C432.365,265.436,407,239.742,407,208.053z"/>
		
			<ellipse fill="none" stroke="#FEB104" stroke-width="6.1698" stroke-miterlimit="10" cx="463.646" cy="208.053" rx="70.807" ry="71.728"/>
		
			<ellipse fill="none" stroke="#FEB104" stroke-width="6.1698" stroke-miterlimit="10" cx="463.646" cy="208.053" rx="14.16" ry="14.345"/>
	</g>
</g>
<g>
	
		<ellipse fill="none" stroke="#FFFFFF" stroke-width="6.1698" stroke-miterlimit="10" cx="703.781" cy="517.89" rx="28.322" ry="28.692"/>
	
		<ellipse fill="none" stroke="#FFFFFF" stroke-width="6.1698" stroke-miterlimit="10" cx="703.781" cy="517.89" rx="42.482" ry="43.038"/>
	
		<ellipse fill="none" stroke="#FFFFFF" stroke-width="6.1698" stroke-miterlimit="10" cx="703.781" cy="517.89" rx="14.162" ry="14.346"/>
</g>
<g>
	
		<ellipse fill="none" stroke="#EAE9E7" stroke-width="6.1698" stroke-miterlimit="10" cx="48.487" cy="290.83" rx="28.323" ry="28.692"/>
	
		<ellipse fill="none" stroke="#EAE9E7" stroke-width="6.1698" stroke-miterlimit="10" cx="48.487" cy="290.83" rx="14.161" ry="14.346"/>
</g>
<g>
	<g>
		<g>
			<path fill="#46B0AA" d="M577.941,408.194c20.531,0,37.236,16.923,37.236,37.722s-16.705,37.721-37.236,37.721
				s-37.236-16.922-37.236-37.721S557.41,408.194,577.941,408.194z M577.941,478.169c17.557,0,31.84-14.47,31.84-32.253
				c0-17.785-14.283-32.254-31.84-32.254s-31.84,14.469-31.84,32.254C546.101,463.699,560.384,478.169,577.941,478.169z"/>
		</g>
		<g>
			<path fill="#46B0AA" d="M577.941,420.772c13.686,0,24.818,11.279,24.818,25.144s-11.133,25.141-24.818,25.141
				s-24.816-11.276-24.816-25.141S564.257,420.772,577.941,420.772z M577.941,464.93c10.35,0,18.773-8.528,18.773-19.014
				s-8.424-19.016-18.773-19.016c-10.352,0-18.771,8.529-18.771,19.016C559.169,456.4,567.589,464.93,577.941,464.93z"/>
		</g>
		<g>
			<ellipse fill="#46B0AA" cx="577.943" cy="445.916" rx="9.867" ry="9.997"/>
		</g>
	</g>
</g>
<g>
	<g>
		<path fill="#E5163E" d="M151.226,320.157c20.995,0,38.077,17.304,38.077,38.571c0,21.269-17.082,38.57-38.077,38.57
			c-20.996,0-38.077-17.302-38.077-38.57C113.148,337.46,130.23,320.157,151.226,320.157z M151.226,391.71
			c17.954,0,32.558-14.797,32.558-32.982c0-18.185-14.604-32.979-32.558-32.979c-17.952,0-32.559,14.794-32.559,32.979
			C118.667,376.913,133.274,391.71,151.226,391.71z"/>
	</g>
	<g>
		<path fill="#E5163E" d="M151.226,333.021c13.992,0,25.379,11.531,25.379,25.707c0,14.177-11.387,25.709-25.379,25.709
			c-13.993,0-25.378-11.533-25.378-25.709C125.848,344.554,137.232,333.021,151.226,333.021z M151.226,378.172
			c10.583,0,19.195-8.723,19.195-19.444c0-10.721-8.612-19.443-19.195-19.443c-10.584,0-19.194,8.723-19.194,19.443
			C132.032,369.449,140.642,378.172,151.226,378.172z"/>
	</g>
	<g>
		<ellipse fill="#E5163E" cx="151.225" cy="358.728" rx="10.09" ry="10.221"/>
	</g>
</g>
<g>
	
		<ellipse fill="none" stroke="#39342D" stroke-width="4.0811" stroke-miterlimit="10" cx="223.975" cy="236.004" rx="36.724" ry="37.202"/>
	
		<ellipse fill="none" stroke="#39342D" stroke-width="4.0811" stroke-miterlimit="10" cx="223.974" cy="236.004" rx="55.086" ry="55.805"/>
	<path fill="none" stroke="#39342D" stroke-width="4.0811" stroke-miterlimit="10" d="M150.526,236.004
		c0-41.094,32.885-74.405,73.452-74.405c40.562,0,73.446,33.311,73.446,74.405c0,41.088-32.884,74.402-73.446,74.402
		C183.411,310.406,150.526,277.092,150.526,236.004z"/>
	<path fill="none" stroke="#39342D" stroke-width="4.0811" stroke-miterlimit="10" d="M132.163,236.004
		c0-51.368,41.108-93.006,91.815-93.006c50.703,0,91.807,41.638,91.807,93.006c0,51.362-41.104,93.004-91.807,93.004
		C173.271,329.008,132.163,287.366,132.163,236.004z"/>
	
		<ellipse fill="none" stroke="#39342D" stroke-width="4.0811" stroke-miterlimit="10" cx="223.974" cy="236.004" rx="18.363" ry="18.602"/>
</g>
<g>
	
		<ellipse fill="none" stroke="#112151" stroke-width="5.475" stroke-miterlimit="10" cx="499.822" cy="542.436" rx="30.791" ry="31.193"/>
	
		<ellipse fill="none" stroke="#112151" stroke-width="5.475" stroke-miterlimit="10" cx="499.822" cy="542.436" rx="46.189" ry="46.789"/>
	
		<ellipse fill="none" stroke="#112151" stroke-width="5.475" stroke-miterlimit="10" cx="499.822" cy="542.436" rx="61.584" ry="62.386"/>
	
		<ellipse fill="none" stroke="#112151" stroke-width="5.475" stroke-miterlimit="10" cx="499.822" cy="542.436" rx="76.98" ry="77.982"/>
	
		<ellipse fill="none" stroke="#112151" stroke-width="5.475" stroke-miterlimit="10" cx="499.822" cy="542.436" rx="15.396" ry="15.598"/>
</g>
<g>
	<path fill="none" stroke="#46B0AA" stroke-width="2.6403" stroke-miterlimit="10" d="M219.372,644.006
		c0-37.388,29.921-67.693,66.828-67.693c36.904,0,66.821,30.307,66.821,67.693c0,37.382-29.917,67.691-66.821,67.691
		C249.293,711.697,219.372,681.388,219.372,644.006z"/>
	<path fill="none" stroke="#46B0AA" stroke-width="2.6403" stroke-miterlimit="10" d="M185.96,644.006
		c0-56.08,44.877-101.539,100.239-101.539c55.355,0,100.233,45.459,100.233,101.539c0,56.077-44.878,101.537-100.233,101.537
		C230.837,745.543,185.96,700.083,185.96,644.006z"/>
	<path fill="none" stroke="#46B0AA" stroke-width="2.6403" stroke-miterlimit="10" d="M152.548,644.006
		c0-74.772,59.839-135.385,133.652-135.385c73.81,0,133.641,60.611,133.641,135.385c0,74.768-59.832,135.383-133.641,135.383
		C212.388,779.389,152.548,718.771,152.548,644.006z"/>
	<path fill="none" stroke="#46B0AA" stroke-width="2.6403" stroke-miterlimit="10" d="M119.135,644.006
		c0-93.467,74.801-169.231,167.069-169.231c92.259,0,167.051,75.766,167.051,169.231c0,93.459-74.792,169.23-167.051,169.23
		C193.936,813.236,119.135,737.465,119.135,644.006z"/>
	
		<ellipse fill="none" stroke="#46B0AA" stroke-width="2.6403" stroke-miterlimit="10" cx="286.197" cy="644.006" rx="33.414" ry="33.849"/>
</g>
<g>
	
		<ellipse fill="none" stroke="#46B0AA" stroke-width="3" stroke-miterlimit="10" cx="538.255" cy="60.094" rx="23.137" ry="23.438"/>
	
		<ellipse fill="none" stroke="#46B0AA" stroke-width="3" stroke-miterlimit="10" cx="538.255" cy="60.094" rx="34.705" ry="35.157"/>
	
		<ellipse fill="none" stroke="#46B0AA" stroke-width="3" stroke-miterlimit="10" cx="538.255" cy="60.094" rx="46.273" ry="46.874"/>
	<path fill="none" stroke="#46B0AA" stroke-width="3" stroke-miterlimit="10" d="M480.412,60.094
		c0-32.361,25.898-58.594,57.846-58.594c31.943,0,57.84,26.233,57.84,58.594c0,32.359-25.896,58.594-57.84,58.594
		C506.31,118.688,480.412,92.454,480.412,60.094z"/>
	
		<ellipse fill="none" stroke="#46B0AA" stroke-width="3" stroke-miterlimit="10" cx="538.255" cy="60.094" rx="11.568" ry="11.719"/>
</g>
<polygon fill="#46B0AA" points="724.845,374.828 724.845,426.296 674.039,374.828 "/>
<g>
	<g>
		<g>
			<polygon fill="#201D19" points="651.755,196.48 635.597,196.48 651.755,180.111 			"/>
		</g>
		<g>
			<polygon fill="#201D19" points="651.755,172.607 635.597,172.607 651.755,156.239 			"/>
		</g>
		<g>
			<polygon fill="#201D19" points="651.755,148.734 635.597,148.734 651.755,132.367 			"/>
		</g>
		<g>
			<polygon fill="#201D19" points="651.755,124.862 635.597,124.862 651.755,108.495 			"/>
		</g>
		<g>
			<polygon fill="#201D19" points="628.818,196.48 612.66,196.48 628.818,180.111 			"/>
		</g>
		<g>
			<polygon fill="#201D19" points="628.818,172.607 612.66,172.607 628.818,156.239 			"/>
		</g>
		<g>
			<polygon fill="#201D19" points="628.818,148.734 612.66,148.734 628.818,132.367 			"/>
		</g>
		<g>
			<polygon fill="#201D19" points="605.878,196.48 589.72,196.48 605.878,180.111 			"/>
		</g>
		<g>
			<polygon fill="#201D19" points="605.878,172.607 589.72,172.607 605.878,156.239 			"/>
		</g>
		<g>
			<polygon fill="#201D19" points="582.939,196.48 566.781,196.48 582.939,180.111 			"/>
		</g>
	</g>
</g>
<g>
	<g>
		<g>
			<polygon fill="#FEB104" points="87.956,645.469 77.145,645.469 87.956,634.517 			"/>
		</g>
		<g>
			<polygon fill="#FEB104" points="87.956,629.495 77.145,629.495 87.956,618.543 			"/>
		</g>
		<g>
			<polygon fill="#FEB104" points="87.956,613.519 77.145,613.519 87.956,602.567 			"/>
		</g>
		<g>
			<polygon fill="#FEB104" points="87.956,597.545 77.145,597.545 87.956,586.594 			"/>
		</g>
		<g>
			<polygon fill="#FEB104" points="72.606,645.469 61.795,645.469 72.606,634.517 			"/>
		</g>
		<g>
			<polygon fill="#FEB104" points="72.606,629.495 61.795,629.495 72.606,618.543 			"/>
		</g>
		<g>
			<polygon fill="#FEB104" points="72.606,613.519 61.795,613.519 72.606,602.567 			"/>
		</g>
		<g>
			<polygon fill="#FEB104" points="57.256,645.469 46.445,645.469 57.256,634.517 			"/>
		</g>
		<g>
			<polygon fill="#FEB104" points="57.256,629.495 46.445,629.495 57.256,618.543 			"/>
		</g>
		<g>
			<polygon fill="#FEB104" points="41.907,645.469 31.095,645.469 41.907,634.517 			"/>
		</g>
	</g>
</g>
<g>
	<polygon fill="#E5163E" points="99.708,764.174 88.896,764.174 99.708,753.223 	"/>
	<polygon fill="#E5163E" points="99.708,748.2 88.896,748.2 99.708,737.249 	"/>
	<polygon fill="#E5163E" points="99.708,732.229 88.896,732.229 99.708,721.275 	"/>
	<polygon fill="#E5163E" points="84.357,764.174 73.545,764.174 84.357,753.223 	"/>
	<polygon fill="#E5163E" points="84.357,748.2 73.545,748.2 84.357,737.249 	"/>
	<polygon fill="#E5163E" points="69.007,764.174 58.196,764.174 69.007,753.223 	"/>
</g>
<polygon fill="#FEB104" points="72.669,90.323 123.476,90.323 72.669,141.79 "/>
<polygon fill="#E5163E" points="486.056,673.182 562.494,673.182 486.056,750.615 "/>
<ellipse fill="#46B0AA" cx="132.244" cy="574.969" rx="12.317" ry="12.477"/>
<path fill="#46B0AA" d="M367.938,87.216c0-14.176,11.34-25.665,25.333-25.665c13.996,0,25.34,11.489,25.34,25.665
	c0,14.177-11.344,25.666-25.34,25.666C379.277,112.881,367.938,101.393,367.938,87.216z"/>
<path fill="#E5163E" d="M541.533,277.845c0-9.006,7.203-16.305,16.092-16.305c8.893,0,16.098,7.298,16.098,16.305
	c0,9.005-7.205,16.304-16.098,16.304C548.736,294.149,541.533,286.851,541.533,277.845z"/>
<ellipse fill="none" stroke="#FEB104" stroke-width="4.7057" stroke-miterlimit="10" cx="318.716" cy="115.472" rx="21.601" ry="21.883"/>
<ellipse fill="none" stroke="#E5163E" stroke-width="3.3274" stroke-miterlimit="10" cx="617.308" cy="514.479" rx="15.275" ry="15.474"/>
<g>
	<polygon fill="#46B0AA" points="610.322,607.925 616.105,602.065 641.171,627.456 635.388,633.314 	"/>
	<polygon fill="#46B0AA" points="635.388,602.065 641.171,607.925 616.107,633.314 610.322,627.455 	"/>
</g>
<g>
	<polygon fill="#E5163E" points="230.705,71.7 236.488,65.84 261.553,91.231 255.768,97.09 	"/>
	<polygon fill="#E5163E" points="255.768,65.84 261.553,71.7 236.49,97.09 230.705,91.229 	"/>
</g>
<g>
	<polygon fill="#070606" points="364.803,625.685 140.942,398.913 364.803,172.142 588.666,398.913 	"/>
	<g>
		<g>
			<text transform="matrix(0.9872 0 0 1 310.7676 318.2959)" fill="#FFFFFF" font-family="'ArialMT'" font-size="26.5788">Juan José</text>
			<text transform="matrix(0.9872 0 0 1 231.5718 373.7354)" fill="#FFFFFF" font-family="'ArialMT'" font-size="43.4182">Hidalgo Yañez</text>
		</g>
		<rect x="247.612" y="436.45" fill="none" width="225.888" height="76.327"/>
		<text transform="matrix(0.9872 0 0 1 286.25 444.0947)" fill="#FFFFFF" font-family="'ArialMT'" font-size="11">Diseño de Interfaces Web - UD2</text>
		<text transform="matrix(0.9872 0 0 1 243.688 470.4951)" fill="#FFFFFF" font-family="'ArialMT'" font-size="11">Degradados - Botones - Menús - Tablas - Displays  </text>
		<rect x="249.013" y="400.547" fill="#FFFFFF" width="223.049" height="1.645"/>
	</g>
</g>
</svg>
